# xmcd
#
# Track frame offsets: 
#        150
#        13128
#        20619
#        28672
#        34821
#        42765
#        59320
#        65014
#        72149
#        77899
#        86076
#        91798
#        98202
#        102693
#        108316
#        114003
#        119665
#        126974
#        138510
#        144015
#        156217
#        166360
#        172079
#        181386
#        187898
#        205039
#        214730
#        223049
#        231722
#
# Disc length: 3274 seconds
#
# Revision: 1
# Processed by: cddbd v1.5.1PL2 Copyright (c) Steve Scherf et al.
# Submitted via: ExactAudioCopy v0.95b3
#
DISCID=a30cc81d
DTITLE=Αντώνης Κυρίτσης - Τα Χορευτικά
DYEAR=1900
DGENRE=Δημοτικά
TTITLE0=Μουρμούρα
TTITLE1=Πάπλωμα
TTITLE2=Δως 'Μου Το Κορίτσι Θεία
TTITLE3=Η Γυναίκα Που Μ 'Αρέσει
TTITLE4=Ασ Παν Να Δουν Τα Μάτια Σου
TTITLE5=Ο Κόκκορας Ποτ Πουρί
TTITLE6=Σε Τούτο Το Γάμο Που 'Ρθαμε
TTITLE7=Ο Μαουκάς
TTITLE8=Ποιός Μωρό Μου Ποιός
TTITLE9=Ντάρι Ντάρι
TTITLE10=Να Σ' Αγαπώ Ηντα 'Θελά
TTITLE11=Λυγαριά
TTITLE12=Καπετάνισσα
TTITLE13=Στην Πάρο Και Στην Νάξο
TTITLE14=Ναυάγησα Στο Πέλαγος
TTITLE15=Στο Παραθύρι Πρόβαλε
TTITLE16=Έρη Έρη
TTITLE17=Γιασεμάκι Μου
TTITLE18=Κουμπάρα Κάτσε Φρόνιμα
TTITLE19=Θέλω Να Με Κοιτάς Στα Μάτια
TTITLE20=Καίνε Τον Ερωτά Μας
TTITLE21=Τα Αισθηματικά Μου
TTITLE22=Μοδίστρες Και Κομμώτριες
TTITLE23=Κατώ Στην Αλεξάνδρεια
TTITLE24=Τα Ματάκια Σου Τα Μαύρα
TTITLE25=Χαμένο Κορμί
TTITLE26=’σωτο Παιδί
TTITLE27=Βάλτε Στο Τραπέζι Δύο Ποτήρια
TTITLE28=Όταν Βραδυάζει Στην Κάμαρά Μου
EXTD=
EXTT0=
EXTT1=
EXTT2=
EXTT3=
EXTT4=
EXTT5=
EXTT6=
EXTT7=
EXTT8=
EXTT9=
EXTT10=
EXTT11=
EXTT12=
EXTT13=
EXTT14=
EXTT15=
EXTT16=
EXTT17=
EXTT18=
EXTT19=
EXTT20=
EXTT21=
EXTT22=
EXTT23=
EXTT24=
EXTT25=
EXTT26=
EXTT27=
EXTT28=
PLAYORDER=
